# xmcd CD database file
#
# Track frame offsets:
#	151
#	21542
#	46773
#	66820
#	95457
#	113200
#	141743
#	162256
#	181133
#	209052
#	227247
#	247960
#	266175
#	287256
#	306847
#	325684
#
# Disc length: 4637 seconds
#
# Revision: 0
# Processed by: cddbd v1.5.1PL0 Copyright (c) Steve Scherf et al.
# Submitted via: CDex 1.51
#
DISCID=ec121b10
DTITLE=Nellie Tiger Travis - Higher Ground
DYEAR=2004
DGENRE=Blues
TTITLE0=Dirty Old Woman
TTITLE1=Thrill Is Gone
TTITLE2=Higher Ground
TTITLE3=I'd Rather Go Blind
TTITLE4=Let's Do It Again
TTITLE5=Got My Mojo Working
TTITLE6=Give Me One Reason
TTITLE7=Oil and Water
TTITLE8=I've Got Amnesia
TTITLE9=One Man's Woman
TTITLE10=I Got It Like That
TTITLE11=Dime and A Quarter
TTITLE12=Something Special
TTITLE13=Get Your Groove On
TTITLE14=Thinking Of You
TTITLE15=Let's Go Fishing
EXTD=YEAR: 2004
EXTT0=
EXTT1=
EXTT2=
EXTT3=
EXTT4=
EXTT5=
EXTT6=
EXTT7=
EXTT8=
EXTT9=
EXTT10=
EXTT11=
EXTT12=
EXTT13=
EXTT14=
EXTT15=
PLAYORDER=
